<svg width="20" height="20" viewBox="0 0 20 20" fill="none" xmlns="http://www.w3.org/2000/svg">
<path fill-rule="evenodd" clip-rule="evenodd" d="M16.6942 6.69421C16.6942 7.80633 16.2598 9.06972 15.478 10.48C14.9801 11.3781 14.3495 12.3184 13.6165 13.2834C12.9671 14.1382 12.2733 14.9659 11.5795 15.7365C11.3366 16.0064 11.1107 16.2501 10.9075 16.4639C10.7842 16.5935 10.695 16.6853 10.6453 16.7353C10.2897 17.0937 9.71025 17.0937 9.35467 16.7353C9.30502 16.6853 9.21577 16.5935 9.09254 16.4639C8.88931 16.2501 8.66342 16.0064 8.42046 15.7365C7.72666 14.9659 7.03286 14.1382 6.38353 13.2834C5.65047 12.3184 5.01988 11.3781 4.52203 10.48C3.74019 9.06972 3.30579 7.80633 3.30579 6.69421C3.30579 2.79397 6.40543 0 10 0C13.5946 0 16.6942 2.79397 16.6942 6.69421ZM10.2283 14.52C10.8904 13.7846 11.5525 12.9947 12.1686 12.1836C12.8528 11.2829 13.4365 10.4126 13.8878 9.59848C14.5336 8.43364 14.876 7.4376 14.876 6.69421C14.876 3.84265 12.6301 1.81818 10 1.81818C7.36992 1.81818 5.12397 3.84265 5.12397 6.69421C5.12397 7.4376 5.46644 8.43364 6.1122 9.59848C6.56354 10.4126 7.14721 11.2829 7.83135 12.1836C8.44751 12.9947 9.1096 13.7846 9.77169 14.52C9.84978 14.6067 9.92596 14.6905 10 14.7713C10.074 14.6905 10.1502 14.6067 10.2283 14.52ZM7.43802 6.69421C7.43802 8.10916 8.58506 9.2562 10 9.2562C11.4149 9.2562 12.562 8.10916 12.562 6.69421C12.562 5.27927 11.4149 4.13223 10 4.13223C8.58506 4.13223 7.43802 5.27927 7.43802 6.69421ZM10 7.43802C10.4108 7.43802 10.7438 7.10501 10.7438 6.69421C10.7438 6.28342 10.4108 5.95041 10 5.95041C9.58921 5.95041 9.2562 6.28342 9.2562 6.69421C9.2562 7.10501 9.58921 7.43802 10 7.43802ZM14.0636 14.374C13.9758 14.8683 14.3053 15.3403 14.7996 15.4281C15.9681 15.6358 16.9222 15.9152 17.556 16.2274C17.903 16.3982 18.0821 16.5375 18.1495 16.59C18.1717 16.6073 18.1818 16.6151 18.1818 16.6116C18.1818 17.1653 14.4545 18.1818 10 18.1818C5.54553 18.1818 1.81818 17.1653 1.81818 16.6116C1.81818 16.6151 1.82829 16.6073 1.85051 16.59C1.91795 16.5375 2.09701 16.3982 2.44396 16.2274C3.07785 15.9152 4.03194 15.6358 5.20041 15.4281C5.69474 15.3403 6.02425 14.8683 5.93638 14.374C5.84852 13.8796 5.37656 13.5501 4.88223 13.638C1.8775 14.1721 0 15.0966 0 16.6116C0 18.7966 4.41277 20 10 20C15.5872 20 20 18.7966 20 16.6116C20 15.0966 18.1225 14.1721 15.1178 13.638C14.6234 13.5501 14.1515 13.8796 14.0636 14.374Z" fill="#0096FF"/>
</svg>
