<svg width="16" height="20" viewBox="0 0 16 20" fill="none" xmlns="http://www.w3.org/2000/svg">
<path fill-rule="evenodd" clip-rule="evenodd" d="M5.62376 1.81818C5.14256 1.81818 4.75248 1.41117 4.75248 0.909091C4.75248 0.407014 5.14256 0 5.62376 0H8C7.5188 0 7.12871 0.407014 7.12871 0.909091V1.73554C7.12871 1.7634 7.12991 1.79096 7.13226 1.81818H5.62376ZM8.86773 1.81818C8.82772 2.28153 8.4545 2.64463 8 2.64463C7.5455 2.64463 7.17228 2.28153 7.13226 1.81818H8.86773ZM8.86773 1.81818C8.87009 1.79096 8.87129 1.7634 8.87129 1.73554V0.909091C8.87129 0.407014 8.4812 0 8 0H10.3762C10.8574 0 11.2475 0.407014 11.2475 0.909091C11.2475 1.41117 10.8574 1.81818 10.3762 1.81818H8.86773ZM8 20C3.58172 20 0 16.2629 0 11.6529C0 7.04291 3.58172 3.30579 8 3.30579C12.4183 3.30579 16 7.04291 16 11.6529C16 16.2629 12.4183 20 8 20ZM11.1683 10.7438C11.6495 10.7438 12.0396 11.1508 12.0396 11.6529C12.0396 12.155 11.6495 12.562 11.1683 12.562H8C7.5188 12.562 7.12871 12.155 7.12871 11.6529V8.34711C7.12871 7.84503 7.5188 7.43802 8 7.43802C8.4812 7.43802 8.87129 7.84503 8.87129 8.34711V10.7438H11.1683ZM14.2574 11.6529C14.2574 15.2587 11.4559 18.1818 8 18.1818C4.54412 18.1818 1.74257 15.2587 1.74257 11.6529C1.74257 8.04707 4.54412 5.12397 8 5.12397C11.4559 5.12397 14.2574 8.04707 14.2574 11.6529Z" fill="#0096FF"/>
</svg>
