<svg width="20" height="20" viewBox="0 0 20 20" fill="none" xmlns="http://www.w3.org/2000/svg">
<path fill-rule="evenodd" clip-rule="evenodd" d="M11.6667 1.66667C11.2064 1.66667 10.8333 1.29357 10.8333 0.833333C10.8333 0.373096 11.2064 0 11.6667 0C16.2694 0 20 3.7306 20 8.33333C20 8.79357 19.6269 9.16667 19.1667 9.16667C18.7064 9.16667 18.3333 8.79357 18.3333 8.33333C18.3333 4.65107 15.3489 1.66667 11.6667 1.66667ZM13.5774 11.9107L11.6667 13.8215L6.17851 8.33333L8.08926 6.42259C8.41469 6.09715 8.41469 5.56951 8.08926 5.24408L3.92259 1.07741C3.59715 0.751974 3.06951 0.751974 2.74408 1.07741L0.244078 3.57741C0.0877974 3.73369 0 3.94565 0 4.16667C0 12.9111 7.08893 20 15.8333 20C16.0543 20 16.2663 19.9122 16.4226 19.7559L18.9226 17.2559C19.248 16.9305 19.248 16.4028 18.9226 16.0774L14.7559 11.9107C14.4305 11.5853 13.9028 11.5853 13.5774 11.9107ZM11.0774 15.5893C11.4028 15.9147 11.9305 15.9147 12.2559 15.5893L14.1667 13.6785L17.1548 16.6667L15.4922 18.3293C7.93925 18.1508 1.8492 12.0608 1.67069 4.50782L3.33333 2.84518L6.32149 5.83333L4.41074 7.74408C4.08531 8.06951 4.08531 8.59715 4.41074 8.92259L11.0774 15.5893ZM10.8333 4.16667C10.8333 4.6269 11.2064 5 11.6667 5C13.5073 5 15 6.49274 15 8.33333C15 8.79357 15.3731 9.16667 15.8333 9.16667C16.2936 9.16667 16.6667 8.79357 16.6667 8.33333C16.6667 5.57226 14.4277 3.33333 11.6667 3.33333C11.2064 3.33333 10.8333 3.70643 10.8333 4.16667Z" fill="#0096FF"/>
</svg>
