<svg width="106" height="17" viewBox="0 0 106 17" fill="none" xmlns="http://www.w3.org/2000/svg">
<path fill-rule="evenodd" clip-rule="evenodd" d="M84 14C86.49 14 88.46 11.31 88.46 8V0H90.46V8C90.46 12.4 87.58 15.95 84.04 15.95C80.5 15.95 77.62 12.4 77.62 8V0H79.62V8C79.54 11.36 81.51 14.05 83.99 14.05L84 14ZM35.83 16.07H33.83V14.64C32.5402 15.5428 31.0044 16.028 29.43 16.03C25.7302 16.0548 22.4961 13.5393 21.6095 9.94719C20.723 6.35512 22.4152 2.62371 25.7016 0.92416C28.988 -0.775394 33.0111 0.000345185 35.43 2.8L33.96 4.11C32.1209 2.05387 29.1168 1.51667 26.6792 2.80802C24.2415 4.09937 22.9984 6.88648 23.6665 9.56297C24.3345 12.2395 26.7414 14.1156 29.5 14.11C31.1817 14.1135 32.7812 13.3831 33.88 12.11H28.48V10.11H35.85L35.83 16.07ZM2 0.13H0V16.05H8V14.05H2V0.13ZM14.23 12.13C17.5437 12.13 20.23 9.44371 20.23 6.13C20.23 2.81629 17.5437 0.13 14.23 0.13C12.6387 0.13 11.1126 0.762141 9.98736 1.88736C8.86214 3.01258 8.23 4.5387 8.23 6.13C8.23 9.44371 10.9163 12.13 14.23 12.13ZM14.23 10.13C16.4391 10.13 18.23 8.33914 18.23 6.13C18.23 3.92086 16.4391 2.13 14.23 2.13C12.0209 2.13 10.23 3.92086 10.23 6.13C10.241 8.33132 12.0286 10.11 14.23 10.11V10.13ZM18.23 16.07V14.07H10.23V16.07H18.23ZM49.19 6.17C49.19 2.85629 46.5037 0.17 43.19 0.17L43.21 0.13C41.6083 0.124625 40.0709 0.759899 38.9402 1.89437C37.8095 3.02884 37.1793 4.56831 37.19 6.17C37.19 9.48371 39.8763 12.17 43.19 12.17C46.5037 12.17 49.19 9.48371 49.19 6.17ZM43.19 10.17C45.3991 10.17 47.19 8.37914 47.19 6.17C47.19 3.96086 45.3991 2.17 43.19 2.17C40.9809 2.17 39.19 3.96086 39.19 6.17C39.2229 8.36348 41.0163 10.1212 43.21 10.11L43.19 10.17ZM47.19 16.11V14.11H39.19V16.11H47.19ZM51.32 0.13H53.32V16.03H51.32V0.13ZM58.09 0.13H56.09V16.06H58.09V12.06H58.4C60.6854 12.3079 62.9115 11.2283 64.1319 9.28019C65.3522 7.33206 65.3522 4.85794 64.1319 2.90981C62.9115 0.961687 60.6854 -0.117935 58.4 0.13C58.297 0.119074 58.193 0.119074 58.09 0.13ZM58.09 2.13V2.17665L58.08 2.18L58.09 2.13ZM58.09 2.17665C58.1906 2.14332 58.2946 2.12098 58.4 2.11C59.9423 1.90462 61.4638 2.61227 62.3005 3.92413C63.1372 5.236 63.1372 6.914 62.3005 8.22587C61.4638 9.53773 59.9423 10.2454 58.4 10.04H58.09V2.17665ZM72.4669 1.30615L72.5 1.28L72.49 1.33L72.4669 1.30615ZM69.68 0.18C70.7261 0.149113 71.7367 0.557909 72.4669 1.30615L71.02 2.45C70.4987 1.90531 69.709 1.71198 68.995 1.95426C68.2811 2.19653 67.7721 2.83053 67.69 3.58V3.74C67.69 4.62 68.3 5.21 69.49 5.29C74.07 5.57 76.17 7.72 76.17 10.56V10.74C75.9285 13.0354 74.3707 14.9793 72.183 15.715C69.9952 16.4507 67.5794 15.8431 66 14.16L67.53 12.98C68.2508 13.7525 69.2746 14.1693 70.33 14.12C72.3312 14.2255 74.0599 12.7349 74.25 10.74V10.6C74.25 7.93 71.63 7.44 69.36 7.22C67.26 7.02 65.75 5.71 65.75 3.82V3.74C65.9038 1.69653 67.6313 0.131639 69.68 0.18ZM103.81 16H105.81L105.79 0.13L99.19 8.82L92.59 0.13V16.03H94.59V6.1L99.2 12.1L103.81 6.1V16Z" fill="black"/>
</svg>
