<svg width="30" height="29" viewBox="0 0 30 29" fill="none" xmlns="http://www.w3.org/2000/svg">
<path d="M27.2468 2.65615C25.7169 0.943269 23.6113 1.88351e-05 21.3178 1.88351e-05C19.5246 1.88351e-05 17.5907 1.06686 16.1777 1.84634C15.6632 2.1303 14.9598 2.51851 14.7519 2.54407C14.5449 2.51895 13.845 2.13174 13.3318 1.84786C11.9224 1.06802 9.99209 1.88351e-05 8.18632 1.88351e-05C5.89271 1.88351e-05 3.78705 0.943269 2.25705 2.65615C0.801559 4.2857 0 6.43067 0 8.6959C0 11.9319 1.16205 16.5338 3.10842 21.0063C3.97435 22.9962 4.8961 24.7157 5.77397 25.9788C6.81887 27.4823 7.71556 28.2131 8.51539 28.2131C8.8703 28.2131 9.52018 28.0626 9.88479 27.0542C10.2391 26.0743 10.5578 24.9495 10.8958 23.7565C11.7903 20.5993 12.9034 16.6699 14.6955 16.6699H14.8086C15.6054 16.6699 16.3186 17.3524 16.989 18.7564C17.6531 20.1472 18.1579 21.9965 18.6469 23.7872C18.97 24.9711 19.2753 26.089 19.6182 27.0515C19.9754 28.0537 20.618 28.2035 20.9696 28.2038C21.7655 28.2037 22.6613 27.4617 23.7085 25.9355C24.5841 24.6593 25.5078 22.9228 26.3797 20.9136C28.336 16.4051 29.504 11.8378 29.504 8.69583C29.504 6.4306 28.7024 4.28562 27.2468 2.65615ZM20.7646 4.97909C20.7462 4.97786 18.8935 4.88916 17.2069 4.44252C16.4463 4.24117 15.5471 3.83659 15.5471 3.71655C15.5471 3.59969 16.5241 3.03083 16.7597 2.90079C18.0574 2.18489 19.8345 1.20442 21.3178 1.20442C25.688 1.20442 28.2996 5.0134 28.2996 8.6959C28.2996 11.6369 27.1406 16.1347 25.2747 20.4341C24.4452 22.3458 23.5362 24.0576 22.7153 25.254C21.7682 26.6345 21.1553 27.0358 20.9696 26.9993C20.8557 26.9768 20.8415 26.896 20.7529 26.647C20.4248 25.7267 20.1253 24.6297 19.8082 23.4683C19.3059 21.6286 18.7867 19.7261 18.0758 18.2373C17.1852 16.3721 16.1165 15.4654 14.8086 15.4654H14.6955C13.4356 15.4654 12.3916 16.3648 11.5039 18.2151C10.7954 19.6918 10.2573 21.5912 9.73702 23.4281C9.40542 24.5985 9.09228 25.7042 8.75221 26.6445C8.67713 26.8521 8.65396 26.9876 8.51539 27.0086C8.40678 27.0251 7.9429 26.9891 6.76297 25.2914C5.9415 24.1094 5.03583 22.4169 4.21277 20.5256C2.35711 16.2616 1.2044 11.7287 1.2044 8.69583C1.2044 5.01333 3.81601 1.20435 8.18632 1.20435C9.3223 1.20435 10.8152 1.72195 12.1796 2.58896C12.3798 2.71617 12.6615 2.93272 12.9341 3.14225C13.0428 3.22588 13.15 3.3082 13.2497 3.38328C13.5696 3.62286 14.0018 3.93614 14.5094 4.23494C14.7258 4.36266 14.9951 4.52165 15.281 4.643C16.3747 5.10724 17.5343 5.34262 18.7275 5.34262C19.9433 5.34262 20.7611 5.12635 20.7692 5.12382C20.7692 5.12382 20.9521 5.07545 20.9463 5.02789C20.9405 4.98032 20.7646 4.97909 20.7646 4.97909Z" fill="#0096FF"/>
</svg>
