<svg width="0" height="0" class="hidden">
//@collapse
    <symbol xmlns="http://www.w3.org/2000/svg" viewBox="0 0 106 17" id="logo_text">
        <path fill-rule="evenodd" clip-rule="evenodd" d="M84 14C86.49 14 88.46 11.31 88.46 8V0H90.46V8C90.46 12.4 87.58 15.95 84.04 15.95C80.5 15.95 77.62 12.4 77.62 8V0H79.62V8C79.54 11.36 81.51 14.05 83.99 14.05L84 14ZM35.83 16.07H33.83V14.64C32.5402 15.5428 31.0044 16.028 29.43 16.03C25.7302 16.0548 22.4961 13.5393 21.6095 9.94719C20.723 6.35512 22.4152 2.62371 25.7016 0.92416C28.988 -0.775394 33.0111 0.000345185 35.43 2.8L33.96 4.11C32.1209 2.05387 29.1168 1.51667 26.6792 2.80802C24.2415 4.09937 22.9984 6.88648 23.6665 9.56297C24.3345 12.2395 26.7414 14.1156 29.5 14.11C31.1817 14.1135 32.7812 13.3831 33.88 12.11H28.48V10.11H35.85L35.83 16.07ZM2 0.13H0V16.05H8V14.05H2V0.13ZM14.23 12.13C17.5437 12.13 20.23 9.44371 20.23 6.13C20.23 2.81629 17.5437 0.13 14.23 0.13C12.6387 0.13 11.1126 0.762141 9.98736 1.88736C8.86214 3.01258 8.23 4.5387 8.23 6.13C8.23 9.44371 10.9163 12.13 14.23 12.13ZM14.23 10.13C16.4391 10.13 18.23 8.33914 18.23 6.13C18.23 3.92086 16.4391 2.13 14.23 2.13C12.0209 2.13 10.23 3.92086 10.23 6.13C10.241 8.33132 12.0286 10.11 14.23 10.11V10.13ZM18.23 16.07V14.07H10.23V16.07H18.23ZM49.19 6.17C49.19 2.85629 46.5037 0.17 43.19 0.17L43.21 0.13C41.6083 0.124625 40.0709 0.759899 38.9402 1.89437C37.8095 3.02884 37.1793 4.56831 37.19 6.17C37.19 9.48371 39.8763 12.17 43.19 12.17C46.5037 12.17 49.19 9.48371 49.19 6.17ZM43.19 10.17C45.3991 10.17 47.19 8.37914 47.19 6.17C47.19 3.96086 45.3991 2.17 43.19 2.17C40.9809 2.17 39.19 3.96086 39.19 6.17C39.2229 8.36348 41.0163 10.1212 43.21 10.11L43.19 10.17ZM47.19 16.11V14.11H39.19V16.11H47.19ZM51.32 0.13H53.32V16.03H51.32V0.13ZM58.09 0.13H56.09V16.06H58.09V12.06H58.4C60.6854 12.3079 62.9115 11.2283 64.1319 9.28019C65.3522 7.33206 65.3522 4.85794 64.1319 2.90981C62.9115 0.961687 60.6854 -0.117935 58.4 0.13C58.297 0.119074 58.193 0.119074 58.09 0.13ZM58.09 2.13V2.17665L58.08 2.18L58.09 2.13ZM58.09 2.17665C58.1906 2.14332 58.2946 2.12098 58.4 2.11C59.9423 1.90462 61.4638 2.61227 62.3005 3.92413C63.1372 5.236 63.1372 6.914 62.3005 8.22587C61.4638 9.53773 59.9423 10.2454 58.4 10.04H58.09V2.17665ZM72.4669 1.30615L72.5 1.28L72.49 1.33L72.4669 1.30615ZM69.68 0.18C70.7261 0.149113 71.7367 0.557909 72.4669 1.30615L71.02 2.45C70.4987 1.90531 69.709 1.71198 68.995 1.95426C68.2811 2.19653 67.7721 2.83053 67.69 3.58V3.74C67.69 4.62 68.3 5.21 69.49 5.29C74.07 5.57 76.17 7.72 76.17 10.56V10.74C75.9285 13.0354 74.3707 14.9793 72.183 15.715C69.9952 16.4507 67.5794 15.8431 66 14.16L67.53 12.98C68.2508 13.7525 69.2746 14.1693 70.33 14.12C72.3312 14.2255 74.0599 12.7349 74.25 10.74V10.6C74.25 7.93 71.63 7.44 69.36 7.22C67.26 7.02 65.75 5.71 65.75 3.82V3.74C65.9038 1.69653 67.6313 0.131639 69.68 0.18ZM103.81 16H105.81L105.79 0.13L99.19 8.82L92.59 0.13V16.03H94.59V6.1L99.2 12.1L103.81 6.1V16Z"></path>
    </symbol>
    <symbol xmlns="http://www.w3.org/2000/svg" viewBox="0 0 30 29" id="logo_tooth">
        <path d="M27.2468 2.65615C25.7169 0.943269 23.6113 1.88351e-05 21.3178 1.88351e-05C19.5246 1.88351e-05 17.5907 1.06686 16.1777 1.84634C15.6632 2.1303 14.9598 2.51851 14.7519 2.54407C14.5449 2.51895 13.845 2.13174 13.3318 1.84786C11.9224 1.06802 9.99209 1.88351e-05 8.18632 1.88351e-05C5.89271 1.88351e-05 3.78705 0.943269 2.25705 2.65615C0.801559 4.2857 0 6.43067 0 8.6959C0 11.9319 1.16205 16.5338 3.10842 21.0063C3.97435 22.9962 4.8961 24.7157 5.77397 25.9788C6.81887 27.4823 7.71556 28.2131 8.51539 28.2131C8.8703 28.2131 9.52018 28.0626 9.88479 27.0542C10.2391 26.0743 10.5578 24.9495 10.8958 23.7565C11.7903 20.5993 12.9034 16.6699 14.6955 16.6699H14.8086C15.6054 16.6699 16.3186 17.3524 16.989 18.7564C17.6531 20.1472 18.1579 21.9965 18.6469 23.7872C18.97 24.9711 19.2753 26.089 19.6182 27.0515C19.9754 28.0537 20.618 28.2035 20.9696 28.2038C21.7655 28.2037 22.6613 27.4617 23.7085 25.9355C24.5841 24.6593 25.5078 22.9228 26.3797 20.9136C28.336 16.4051 29.504 11.8378 29.504 8.69583C29.504 6.4306 28.7024 4.28562 27.2468 2.65615ZM20.7646 4.97909C20.7462 4.97786 18.8935 4.88916 17.2069 4.44252C16.4463 4.24117 15.5471 3.83659 15.5471 3.71655C15.5471 3.59969 16.5241 3.03083 16.7597 2.90079C18.0574 2.18489 19.8345 1.20442 21.3178 1.20442C25.688 1.20442 28.2996 5.0134 28.2996 8.6959C28.2996 11.6369 27.1406 16.1347 25.2747 20.4341C24.4452 22.3458 23.5362 24.0576 22.7153 25.254C21.7682 26.6345 21.1553 27.0358 20.9696 26.9993C20.8557 26.9768 20.8415 26.896 20.7529 26.647C20.4248 25.7267 20.1253 24.6297 19.8082 23.4683C19.3059 21.6286 18.7867 19.7261 18.0758 18.2373C17.1852 16.3721 16.1165 15.4654 14.8086 15.4654H14.6955C13.4356 15.4654 12.3916 16.3648 11.5039 18.2151C10.7954 19.6918 10.2573 21.5912 9.73702 23.4281C9.40542 24.5985 9.09228 25.7042 8.75221 26.6445C8.67713 26.8521 8.65396 26.9876 8.51539 27.0086C8.40678 27.0251 7.9429 26.9891 6.76297 25.2914C5.9415 24.1094 5.03583 22.4169 4.21277 20.5256C2.35711 16.2616 1.2044 11.7287 1.2044 8.69583C1.2044 5.01333 3.81601 1.20435 8.18632 1.20435C9.3223 1.20435 10.8152 1.72195 12.1796 2.58896C12.3798 2.71617 12.6615 2.93272 12.9341 3.14225C13.0428 3.22588 13.15 3.3082 13.2497 3.38328C13.5696 3.62286 14.0018 3.93614 14.5094 4.23494C14.7258 4.36266 14.9951 4.52165 15.281 4.643C16.3747 5.10724 17.5343 5.34262 18.7275 5.34262C19.9433 5.34262 20.7611 5.12635 20.7692 5.12382C20.7692 5.12382 20.9521 5.07545 20.9463 5.02789C20.9405 4.98032 20.7646 4.97909 20.7646 4.97909Z"></path>
    </symbol>
    <symbol xmlns="http://www.w3.org/2000/svg" viewBox="0 0 88 88" id="testing_1">
        <path d="M52.199 63.2849C50.1116 61.1977 46.7152 61.1977 44.6279 63.2849L39.7094 68.2034C39.6115 68.3013 39.4757 68.3457 39.3458 68.3241C32.8884 67.2116 28.5891 63.7105 26.6013 61.7225C21.9914 57.1128 20.4882 51.7644 20.0024 48.9867C19.9786 48.8512 20.023 48.712 20.1209 48.6143L25.0391 43.6961C27.1173 41.6362 27.092 38.1581 25.0391 36.125L17.9487 29.0346C15.8614 26.9474 12.465 26.9472 10.3776 29.0346L4.83586 34.5764C0.918367 38.4939 -0.432617 44.3873 1.3939 49.5905C4.46502 58.3394 9.30708 66.0601 15.7856 72.5387C19.6027 76.3557 23.9226 79.6488 28.6252 82.3265C29.2368 82.6751 30.0152 82.4613 30.3637 81.8494C30.7119 81.2376 30.4984 80.4593 29.8866 80.1109C25.3821 77.5461 21.2443 74.3919 17.5884 70.7358C11.3822 64.5297 6.74294 57.1313 3.79947 48.7458C2.29552 44.4617 3.40993 39.6074 6.63859 36.3788L12.1804 30.837C13.2545 29.7495 15.0691 29.7503 16.1461 30.837L23.2365 37.9274C24.3299 39.0209 24.3299 40.7999 23.2365 41.8932L18.3183 46.8114C17.6339 47.4958 17.3248 48.473 17.4913 49.4258C18.0289 52.5 19.6933 58.4196 24.7989 63.5252C27.0006 65.7268 31.7619 69.6042 38.9135 70.8364C39.8581 70.9984 40.8299 70.6887 41.5125 70.006L46.4308 65.0876C47.5243 63.9945 49.3033 63.9938 50.3966 65.0876L57.487 72.1782C58.5655 73.2461 58.5723 75.0705 57.487 76.144L51.9452 81.6857C48.7166 84.9144 43.8621 86.0285 39.5782 84.525C38.0596 83.9919 36.5433 83.389 35.0711 82.7332C34.4282 82.4466 33.6746 82.7359 33.388 83.3787C33.1015 84.0218 33.3906 84.7754 34.0337 85.0618C35.5689 85.7457 37.1504 86.3745 38.7338 86.9304C43.9119 88.7485 49.8209 87.416 53.7478 83.4885L59.2896 77.9465C61.3678 75.8868 61.3418 72.4077 59.2896 70.3753L52.199 63.2849ZM80.7307 7.09632C75.0155 1.55218 66.6631 -0.565478 58.9335 1.56985C58.2549 1.75732 57.8568 2.45923 58.0443 3.13787C58.2317 3.81651 58.9337 4.2142 59.6125 4.02708C66.4746 2.13173 73.8868 4.0089 78.9559 8.92624C82.8445 12.6983 85.0085 17.7562 85.0497 23.1679C85.0908 28.581 83.0058 33.6698 79.1785 37.4973C76.0702 40.6054 72.133 42.5688 67.7923 43.1747C63.5911 43.7615 59.2316 42.9845 55.5169 40.9878C54.956 40.6865 54.2918 40.628 53.6943 40.8279L44.3794 43.9446L47.4964 34.6293C47.6961 34.0322 47.6379 33.3683 47.3365 32.8077C45.3256 29.0666 44.5531 24.678 45.1609 20.4501C45.7894 16.0792 47.7923 12.1267 50.9532 9.02006C52.0331 7.95868 53.2315 7.02222 54.5148 6.23669C55.1153 5.86907 55.3039 5.08455 54.9363 4.4841C54.5688 3.88381 53.7842 3.69499 53.1837 4.0626C51.7357 4.94893 50.384 6.00537 49.1663 7.20204C45.6038 10.7035 43.3461 15.1591 42.6376 20.0874C41.9574 24.8175 42.8119 29.7277 45.0435 33.926L41.7995 43.6206C41.5216 44.4512 41.7337 45.3518 42.3531 45.9711C42.9758 46.5938 43.8828 46.7997 44.7034 46.5245L54.398 43.2807C58.5672 45.4971 63.4446 46.3552 68.1446 45.6997C73.0389 45.0163 77.4778 42.8033 80.9811 39.3C85.2951 34.986 87.6452 29.25 87.5989 23.1487C87.5525 17.0485 85.1134 11.3476 80.7307 7.09632V7.09632ZM66.7342 10.8248H63.2811C61.9436 10.8248 60.8555 11.9131 60.8555 13.2506V19.1699H54.9361C53.5986 19.1699 52.5105 20.2581 52.5105 21.5955V25.0485C52.5105 26.386 53.5987 27.4741 54.9361 27.4741H60.8554V33.3933C60.8554 34.7309 61.9436 35.8189 63.281 35.8189H66.734C68.0715 35.8189 69.1598 34.7307 69.1598 33.3933V27.4741H75.079C76.4166 27.4741 77.5046 26.3859 77.5046 25.0485V21.5955C77.5046 20.2579 76.4166 19.1699 75.079 19.1699H69.1598V13.2506C69.1599 11.9131 68.0717 10.8248 66.7342 10.8248V10.8248ZM74.9555 21.7192V24.9249H68.4607C67.4405 24.9249 66.6106 25.7548 66.6106 26.7751V33.2698H63.4047V26.7751C63.4047 25.7548 62.5748 24.9249 61.5546 24.9249H55.0599V21.7192H61.5546C62.5748 21.7192 63.4047 20.8893 63.4047 19.8691V13.3742H66.6106V19.8691C66.6106 20.8893 67.4405 21.7192 68.4607 21.7192H74.9555Z"></path>
    </symbol>
    <symbol xmlns="http://www.w3.org/2000/svg" viewBox="0 0 79 84" id="testing_2">
        <path d="M24.5789 53.8828V61.4829C24.5789 73.6276 34.4582 83.6701 46.6029 83.6701C58.7476 83.6701 68.6269 73.6276 68.6269 61.4829V58.7881C74.2049 57.6512 78.4154 52.7085 78.4154 46.8002C78.4154 40.0538 72.9262 34.5646 66.1798 34.5646C59.4335 34.5646 53.9443 40.0538 53.9443 46.8002C53.9443 52.7085 58.1548 57.6512 63.7327 58.7881V61.4829C63.7327 70.9273 56.0473 78.7758 46.6029 78.7758C37.1585 78.7758 29.4731 70.9273 29.4731 61.4829V53.8859C39.4603 52.0538 50.986 39.6528 52.9812 27.8566C54.2896 20.1084 51.0568 13.9057 44.1558 10.8033V7.48319C44.1558 3.43501 40.8626 0.141846 36.8145 0.141846C32.7663 0.141846 29.4731 3.43501 29.4731 7.48319C29.4731 11.5314 32.7663 14.8245 36.8145 14.8245H41.1591C46.7899 16.9093 49.1564 21.1171 48.1539 27.0417C46.4357 37.2101 34.9838 49.2473 27.026 49.2473C18.1131 49.2473 5.72516 35.0935 5.65012 24.613C5.61667 19.9415 8.06428 16.5918 12.8272 14.8245H17.2375C21.2857 14.8245 24.5789 11.5314 24.5789 7.48319C24.5789 3.43501 21.2859 0.141846 17.2375 0.141846C13.1892 0.141846 9.89619 3.43501 9.89619 7.48319V10.776C4.00957 13.4121 0.747566 18.3516 0.760291 24.613C0.785252 36.8835 13.4985 51.8301 24.5789 53.8828ZM63.7327 44.3531H68.6269V49.2473H63.7327V44.3531Z"></path>
    </symbol>
    <symbol xmlns="http://www.w3.org/2000/svg" viewBox="0 0 72 81" id="testing_3">
        <path d="M71.8145 75.961L68.2733 55.2294C67.8917 52.9957 66.3071 51.2013 64.1375 50.5469L54.5862 47.665C54.3884 45.3302 53.4311 43.1274 51.838 41.3839C50.5636 39.9893 48.9608 38.9739 47.194 38.4135C47.4963 38.078 47.7767 37.7436 48.0338 37.4165C50.3052 34.5278 51.5212 31.3452 51.8308 29.1735H52.5677C54.4841 29.1735 56.0433 27.6144 56.0433 25.6978V23.9161C56.0433 22.6371 55.3238 21.4781 54.2418 20.8766V16.5922C54.2418 15.9448 53.7169 15.4199 53.0695 15.4199C52.4221 15.4199 51.8974 15.9446 51.8974 16.5922V21.4019C51.4409 21.4812 50.8962 21.6182 50.339 21.8528C50.2819 21.8736 50.2264 21.8977 50.1739 21.9266C50.048 21.984 49.922 22.0445 49.7965 22.1127V12.6661C49.7965 10.0563 47.6733 7.93311 45.0635 7.93311H41.8279C40.712 7.93311 39.6218 8.32193 38.7578 9.02829L38.4403 9.28782C37.8571 9.76467 37.1211 10.0273 36.3677 10.0273C35.6142 10.0273 34.878 9.76467 34.2949 9.28782L33.9775 9.02829C33.1135 8.32209 32.0233 7.93311 30.9074 7.93311H27.6715C25.0617 7.93311 22.9385 10.0563 22.9385 12.6661V22.1127C22.813 22.0445 22.687 21.984 22.5611 21.9266C22.5086 21.8977 22.4532 21.8736 22.3962 21.8528C21.839 21.6182 21.2941 21.4812 20.8377 21.4019V9.24014C20.8377 5.44443 23.9258 2.35633 27.7215 2.35633H45.0133C48.8092 2.35633 51.8971 5.44443 51.8971 9.24014V11.0828C51.8971 11.7302 52.4219 12.2551 53.0692 12.2551C53.7165 12.2551 54.2415 11.7304 54.2415 11.0828V9.24014C54.2415 4.15178 50.1016 0.0119629 45.0133 0.0119629H27.7215C22.633 0.0119629 18.4934 4.15178 18.4934 9.24014V20.8768C17.4113 21.4782 16.6918 22.6371 16.6918 23.9163V25.6979C16.6918 27.6146 18.251 29.1736 20.1675 29.1736H20.9043C21.2137 31.3454 22.4299 34.5279 24.7013 37.4167C24.9582 37.7434 25.2383 38.0775 25.5404 38.4127C21.4786 39.7029 18.5165 43.3548 18.1489 47.665L8.5973 50.5469C6.42772 51.2013 4.84302 52.9957 4.46155 55.2294L3.0235 63.6483C2.91453 64.2865 3.34353 64.892 3.98157 65.001C4.61945 65.1103 5.22528 64.6811 5.33441 64.0429L6.77246 55.624C7.00322 54.2725 7.96192 53.1872 9.27442 52.7913L18.1086 50.1258V52.4446C16.0837 52.8173 14.3606 54.2083 13.6509 56.1355C13.4626 56.6471 13.3455 57.1827 13.3029 57.7274L12.4491 68.6863C12.3847 69.5118 12.6704 70.3339 13.2324 70.9413C13.7945 71.5488 14.5917 71.8974 15.4195 71.8974H16.881C17.5284 71.8974 18.0533 71.3728 18.0533 70.7252C18.0533 70.0776 17.5284 69.5531 16.881 69.5531H15.4195C15.243 69.5531 15.0732 69.479 14.9533 69.3492C14.8335 69.2198 14.7727 69.0447 14.7865 68.8688L15.6403 57.9097C15.6661 57.5797 15.7369 57.2553 15.851 56.9455C16.3447 55.6049 17.678 54.697 19.1691 54.6865L19.3622 54.6851C19.3712 54.685 19.3802 54.685 19.3891 54.685C20.8382 54.685 22.121 55.5067 22.6621 56.7842C22.8139 57.1424 22.9062 57.521 22.9365 57.9097L23.7906 68.8689C23.8042 69.0446 23.7434 69.2197 23.6236 69.3494C23.5039 69.4788 23.3339 69.5531 23.1574 69.5531H21.6959C21.0485 69.5531 20.5236 70.0778 20.5236 70.7252C20.5236 71.3726 21.0485 71.8974 21.6959 71.8974H23.1574C23.9853 71.8974 24.7826 71.549 25.3445 70.9413C25.9067 70.3335 26.1924 69.5117 26.1279 68.6865L25.2738 57.7274C25.2238 57.0861 25.0714 56.4609 24.8208 55.8694C24.0486 54.0469 22.3974 52.7798 20.4528 52.4369V49.4185L24.4824 48.2027C24.849 48.9748 25.5756 50.6435 27.0147 54.2405C28.4651 57.8698 30.2679 62.5218 31.9969 67.0442C32.0093 67.0822 32.0235 67.1193 32.0394 67.1555C33.1933 70.1747 34.3125 73.1318 35.2698 75.6827C35.4415 76.1401 35.8788 76.4431 36.3673 76.4431C36.8559 76.4431 37.2932 76.1401 37.4649 75.6827C38.422 73.1318 39.5413 70.1747 40.6952 67.1555C40.7113 67.1193 40.7254 67.0821 40.7378 67.0442C42.4655 62.5245 44.2674 57.8755 45.7172 54.2472C47.1582 50.6455 47.8853 48.9755 48.2521 48.2027L52.2817 49.4185V56.3422C49.4897 56.8846 47.3749 59.347 47.3749 62.2953C47.3749 65.6396 50.0957 68.3606 53.4402 68.3606C56.7847 68.3606 59.5056 65.6398 59.5056 62.2953C59.5056 59.3567 57.4046 56.9002 54.6261 56.3472V50.126L63.4604 52.7915C64.7729 53.1874 65.7315 54.2727 65.9624 55.6241L69.5036 76.3557C69.5623 76.6995 69.4709 77.0357 69.2459 77.3022C69.0211 77.5686 68.7051 77.7156 68.3563 77.7156H4.37837C4.02957 77.7156 3.71375 77.5688 3.48878 77.3022C3.26395 77.0357 3.17234 76.6997 3.23112 76.3557L4.39979 69.5138C4.50876 68.8756 4.07975 68.2701 3.44172 68.1612C2.80384 68.0517 2.198 68.4812 2.08888 69.1192L0.920209 75.9611C0.745886 76.9824 1.02902 78.0222 1.69692 78.8141C2.36514 79.6058 3.34244 80.0598 4.37837 80.0598H68.3563C69.3922 80.0598 70.3697 79.6058 71.0378 78.8139C71.7057 78.022 71.9888 76.9822 71.8145 75.961ZM51.9112 23.7901C52.5358 23.6344 53.0372 23.6372 53.0428 23.6373C53.2448 23.64 53.4411 23.5928 53.6156 23.5013C53.6678 23.6312 53.6986 23.7709 53.6986 23.9163V25.6979C53.6986 26.3218 53.1912 26.8292 52.5673 26.8292H51.9112V23.7901ZM20.8235 26.8292H20.1673C19.5435 26.8292 19.036 26.3218 19.036 25.6979V23.9163C19.036 23.7709 19.067 23.6312 19.1191 23.5015C19.2934 23.5929 19.4898 23.6402 19.6919 23.6373C19.7008 23.6389 20.2008 23.6361 20.8235 23.7907V26.8292ZM23.1679 28.1436V25.064C23.5231 25.1704 23.9116 25.1559 24.2703 25.0063C24.8855 24.7496 25.2829 24.1534 25.2829 23.4872V12.6661C25.2829 11.3491 26.3545 10.2775 27.6715 10.2775H30.907C31.4836 10.2775 32.0469 10.4784 32.4933 10.8433L32.8107 11.1028C33.8114 11.9211 35.0745 12.3715 36.3673 12.3715C37.6601 12.3715 38.9232 11.921 39.924 11.1028L40.2414 10.8433C40.6876 10.4784 41.251 10.2775 41.8276 10.2775H45.0632C46.3802 10.2775 47.4518 11.3491 47.4518 12.6661V23.4874C47.4518 24.1534 47.8492 24.7497 48.4644 25.0064C48.6699 25.0921 48.885 25.1337 49.0982 25.1337C49.2572 25.1337 49.415 25.1104 49.5668 25.0651V28.1436C49.5668 29.8551 48.3836 33.1787 46.1907 35.9675C45.4643 36.8914 44.5307 37.8838 43.3811 38.7512C43.3446 38.7756 43.3098 38.802 43.2765 38.8302C41.4956 40.1469 39.2056 41.1556 36.3673 41.1556C33.5291 41.1556 31.2391 40.1469 29.4581 38.83C29.4248 38.802 29.39 38.7756 29.3538 38.7514C28.2042 37.8838 27.2705 36.8914 26.544 35.9675C24.3513 33.1788 23.1679 29.8551 23.1679 28.1436ZM44.0469 47.0823L36.3673 52.8223L28.6878 47.0823C29.4493 46.1144 29.876 44.8719 29.876 43.7631V41.8736C31.6819 42.8448 33.8368 43.5002 36.3673 43.5002C38.8979 43.5002 41.053 42.8448 42.8587 41.8736V43.7631C42.8587 44.8719 43.2854 46.1144 44.0469 47.0823ZM26.7314 45.7739C26.1054 45.5354 25.4114 45.4963 24.7549 45.6744C24.7262 45.6811 24.698 45.6888 24.6707 45.6969L20.6209 46.9189C21.3058 43.551 24.0406 40.8703 27.5316 40.3511V43.7631C27.5316 44.4986 27.2033 45.2589 26.7314 45.7739ZM29.9129 55.1839C29.9107 55.1784 29.9085 55.1729 29.9064 55.1676C29.847 55.0174 29.7884 54.8691 29.7302 54.7226C29.7198 54.6961 29.7093 54.6696 29.6988 54.6434C29.6419 54.5 29.5855 54.3577 29.5298 54.2178C29.5259 54.208 29.522 54.1983 29.5181 54.1883C29.3444 53.7516 29.177 53.3328 29.0159 52.9314C29.0042 52.9023 28.9925 52.8728 28.9807 52.8439C28.9345 52.7288 28.889 52.6154 28.8438 52.5035C28.8272 52.4624 28.8108 52.4217 28.7944 52.3811C28.7506 52.2726 28.7071 52.1647 28.6643 52.0592C28.6515 52.0276 28.639 51.997 28.6263 51.9655C28.5486 51.7738 28.4726 51.587 28.3985 51.4049C28.3785 51.3556 28.358 51.3054 28.3382 51.2568C28.3091 51.1858 28.2808 51.1167 28.2523 51.0472C28.2217 50.9721 28.191 50.8977 28.161 50.8245C28.1498 50.7972 28.138 50.7682 28.1268 50.741C28.1177 50.7192 28.1094 50.699 28.1005 50.6773C27.9651 50.3483 27.8365 50.0383 27.7144 49.7467C27.7134 49.7444 27.7123 49.742 27.7114 49.7397C27.6463 49.5844 27.5827 49.4328 27.5216 49.2883C27.4898 49.2134 27.4586 49.1398 27.4279 49.0675L34.0327 54.0039L31.2729 55.1764C31.268 55.1784 31.263 55.1804 31.2582 55.1826L30.1059 55.6721C30.0406 55.5069 29.9766 55.3449 29.9129 55.1839ZM32.7098 62.3613C32.4783 61.7604 32.245 61.1562 32.0113 60.5525C31.6458 59.6084 31.2967 58.7107 30.9625 57.8555L31.4 57.6696L33.1873 59.7472L32.7098 62.3613ZM36.39 71.8885C36.3564 71.8188 36.3164 71.753 36.2701 71.6917C35.7404 70.2916 35.0681 68.5201 34.3241 66.571L35.4185 60.5791H37.3162L38.4106 66.571C37.6309 68.613 36.9306 70.4594 36.39 71.8885ZM37.7558 58.2349H34.9789L33.6648 56.7074L36.3673 55.5594L39.0699 56.7074L37.7558 58.2349ZM40.7234 60.5525C40.4897 61.1562 40.2564 61.7604 40.0248 62.3613L39.5474 59.7471L41.3347 57.6694L41.7721 57.8553C41.438 58.7105 41.0889 59.6084 40.7234 60.5525ZM45.2133 49.2883C45.1553 49.4253 45.0949 49.5689 45.0335 49.7156C45.0255 49.7347 45.0174 49.7539 45.0094 49.7731C44.9486 49.9185 44.8867 50.0671 44.8226 50.2217C44.8183 50.2318 44.814 50.2426 44.8097 50.2529C44.7544 50.3863 44.6976 50.5239 44.6399 50.6641C44.6292 50.6904 44.619 50.7146 44.6082 50.741C44.5954 50.7725 44.5816 50.8058 44.5687 50.8375C44.543 50.9 44.5169 50.9638 44.4906 51.0276C44.4584 51.1063 44.4264 51.1846 44.3934 51.2651C44.3829 51.2908 44.3721 51.3175 44.3615 51.3433C44.2799 51.5432 44.1961 51.7493 44.1104 51.961C44.097 51.9941 44.0837 52.0267 44.0702 52.0603C44.0279 52.1649 43.9847 52.2717 43.9414 52.3791C43.9245 52.4211 43.9075 52.463 43.8904 52.5055C43.8457 52.6164 43.8005 52.7286 43.7549 52.8425C43.7421 52.8742 43.7291 52.9067 43.7163 52.9386C43.5573 53.3345 43.3923 53.7474 43.2211 54.1776C43.2155 54.1919 43.2099 54.2058 43.2042 54.2202C43.1489 54.3591 43.0929 54.5005 43.0363 54.6429C43.0259 54.6695 43.0152 54.6961 43.0046 54.7228C42.9461 54.8701 42.8872 55.0189 42.8275 55.1701C42.8264 55.1729 42.8253 55.1757 42.8242 55.1784C42.7598 55.3413 42.695 55.5051 42.6291 55.6724L41.4757 55.1825C41.4716 55.1807 41.4676 55.179 41.4637 55.1773L38.7023 54.0042L45.3071 49.0679C45.2761 49.1398 45.2448 49.2133 45.2133 49.2883ZM48.064 45.6971C48.0639 45.6971 48.0636 45.6969 48.0634 45.6969C48.0625 45.6966 48.0614 45.6965 48.0604 45.696C47.3803 45.492 46.6549 45.5257 46.0034 45.7739C45.5314 45.2589 45.2032 44.4986 45.2032 43.7631V40.3494C48.7161 40.8672 51.4426 43.5227 52.1186 46.9203L48.064 45.6971ZM57.1612 62.2953C57.1612 64.3472 55.4919 66.0163 53.4402 66.0163C51.3885 66.0163 49.7192 64.3472 49.7192 62.2953C49.7192 60.2435 51.3885 58.5743 53.4402 58.5743C55.4919 58.5743 57.1612 60.2435 57.1612 62.2953Z"></path>
    </symbol>
    <symbol xmlns="http://www.w3.org/2000/svg" viewBox="0 0 81 76" id="testing_4">
        <path d="M68.8209 14.4965H57.2318V8.37958C57.2318 3.96131 53.6373 0.366821 49.219 0.366821H32.217C27.7987 0.366821 24.2042 3.96131 24.2042 8.37958V14.4964H12.6151C6.04182 14.4965 0.694092 19.8442 0.694092 26.4176V63.784C0.694092 70.3573 6.04182 75.705 12.6151 75.705H68.8209C75.3942 75.705 80.742 70.3573 80.742 63.784V26.4176C80.742 19.8442 75.3942 14.4965 68.8209 14.4965ZM28.8945 8.37958C28.8945 6.54755 30.385 5.05713 32.217 5.05713H49.219C51.0511 5.05713 52.5415 6.54755 52.5415 8.37958V14.4964H28.8945V8.37958ZM5.3844 63.7838V26.4176C5.3844 23.2513 7.43093 20.5558 10.27 19.5794V70.6223C7.43093 69.6456 5.3844 66.9501 5.3844 63.7838ZM14.9603 71.0147V19.1868H66.4758V71.0147H14.9603ZM76.0517 63.7838C76.0517 66.9501 74.0051 69.6456 71.1661 70.6219V19.5792C74.0051 20.5558 76.0517 23.2513 76.0517 26.4176V63.7838Z" fill="white"></path>
        <path d="M54.8476 38.0456H47.7731V30.971C47.7731 29.6759 46.7231 28.6259 45.428 28.6259H36.0083C34.7131 28.6259 33.6631 29.6759 33.6631 30.971V38.0456H26.5886C25.2934 38.0456 24.2434 39.0956 24.2434 40.3907V49.8104C24.2434 51.1056 25.2934 52.1556 26.5886 52.1556H33.6631V59.2301C33.6631 60.5253 34.7131 61.5753 36.0083 61.5753H45.428C46.7231 61.5753 47.7731 60.5253 47.7731 59.2301V52.1556H54.8476C56.1428 52.1556 57.1928 51.1056 57.1928 49.8104V40.3907C57.1928 39.0956 56.1428 38.0456 54.8476 38.0456ZM52.5025 47.4653H45.428C44.1328 47.4653 43.0828 48.5153 43.0828 49.8104V56.885H38.3534V49.8104C38.3534 48.5153 37.3034 47.4653 36.0083 47.4653H28.9337V42.7359H36.0083C37.3034 42.7359 38.3534 41.6859 38.3534 40.3907V33.3162H43.0828V40.3907C43.0828 41.6859 44.1328 42.7359 45.428 42.7359H52.5025V47.4653Z"></path>
    </symbol>
    <symbol fill="none" xmlns="http://www.w3.org/2000/svg" viewBox="0 0 16 16" id="pinterest">
        <path d="M15.5 8C15.5 3.71875 12.0312 0.25 7.75 0.25C3.46875 0.25 0 3.71875 0 8C0 11.3125 2.03125 14.0938 4.90625 15.2188C4.84375 14.625 4.78125 13.6875 4.9375 13C5.09375 12.4062 5.84375 9.15625 5.84375 9.15625C5.84375 9.15625 5.625 8.6875 5.625 8C5.625 6.9375 6.25 6.125 7.03125 6.125C7.6875 6.125 8 6.625 8 7.21875C8 7.875 7.5625 8.875 7.34375 9.8125C7.1875 10.5625 7.75 11.1875 8.5 11.1875C9.875 11.1875 10.9375 9.75 10.9375 7.65625C10.9375 5.78125 9.59375 4.5 7.71875 4.5C5.5 4.5 4.21875 6.15625 4.21875 7.84375C4.21875 8.53125 4.46875 9.25 4.78125 9.625C4.84375 9.6875 4.84375 9.78125 4.84375 9.84375C4.78125 10.0938 4.625 10.625 4.625 10.7188C4.59375 10.875 4.5 10.9062 4.34375 10.8438C3.375 10.375 2.78125 8.96875 2.78125 7.8125C2.78125 5.375 4.5625 3.125 7.90625 3.125C10.5938 3.125 12.6875 5.0625 12.6875 7.625C12.6875 10.2812 11 12.4375 8.65625 12.4375C7.875 12.4375 7.125 12.0312 6.875 11.5312C6.875 11.5312 6.5 13.0312 6.40625 13.375C6.21875 14.0625 5.75 14.9062 5.4375 15.4062C6.15625 15.6562 6.9375 15.75 7.75 15.75C12.0312 15.75 15.5 12.2812 15.5 8Z" fill="#707070"></path>
    </symbol>
    <symbol xmlns="http://www.w3.org/2000/svg" viewBox="0 0 14 14" id="whatsapp">
        <path d="M11.875 2.0625C10.5938 0.75 8.84375 0 6.96875 0C3.15625 0 0.03125 3.125 0.03125 6.9375C0.03125 8.1875 0.375 9.375 0.96875 10.4062L0 14L3.65625 13.0625C4.6875 13.5938 5.8125 13.9062 6.96875 13.9062C10.8125 13.9062 14 10.7812 14 6.96875C14 5.09375 13.1875 3.375 11.875 2.0625ZM6.96875 12.7188C5.9375 12.7188 4.9375 12.4375 4.03125 11.9062L3.84375 11.7812L1.65625 12.375L2.25 10.25L2.09375 10.0312C1.53125 9.09375 1.21875 8.03125 1.21875 6.9375C1.21875 3.78125 3.8125 1.1875 7 1.1875C8.53125 1.1875 9.96875 1.78125 11.0625 2.875C12.1562 3.96875 12.8125 5.40625 12.8125 6.96875C12.8125 10.125 10.1562 12.7188 6.96875 12.7188ZM10.1562 8.40625C9.96875 8.3125 9.125 7.90625 8.96875 7.84375C8.8125 7.78125 8.6875 7.75 8.5625 7.9375C8.46875 8.09375 8.125 8.5 8.03125 8.625C7.90625 8.71875 7.8125 8.75 7.65625 8.65625C6.625 8.15625 5.96875 7.75 5.28125 6.59375C5.09375 6.28125 5.46875 6.3125 5.78125 5.65625C5.84375 5.53125 5.8125 5.4375 5.78125 5.34375C5.75 5.25 5.375 4.40625 5.25 4.0625C5.09375 3.71875 4.96875 3.75 4.84375 3.75C4.75 3.75 4.625 3.75 4.53125 3.75C4.40625 3.75 4.21875 3.78125 4.0625 3.96875C3.90625 4.15625 3.46875 4.5625 3.46875 5.40625C3.46875 6.28125 4.0625 7.09375 4.15625 7.21875C4.25 7.3125 5.375 9.0625 7.125 9.8125C8.21875 10.3125 8.65625 10.3438 9.21875 10.25C9.53125 10.2188 10.2188 9.84375 10.375 9.4375C10.5312 9.03125 10.5312 8.6875 10.4688 8.625C10.4375 8.53125 10.3125 8.5 10.1562 8.40625Z"></path>
    </symbol>
    <symbol xmlns="http://www.w3.org/2000/svg" viewBox="0 0 18 12" id="youtube">
        <path d="M17.1562 1.90625C16.9688 1.15625 16.375 0.5625 15.6562 0.375C14.3125 0 9 0 9 0C9 0 3.65625 0 2.3125 0.375C1.59375 0.5625 1 1.15625 0.8125 1.90625C0.4375 3.21875 0.4375 6.03125 0.4375 6.03125C0.4375 6.03125 0.4375 8.8125 0.8125 10.1562C1 10.9062 1.59375 11.4688 2.3125 11.6562C3.65625 12 9 12 9 12C9 12 14.3125 12 15.6562 11.6562C16.375 11.4688 16.9688 10.9062 17.1562 10.1562C17.5312 8.8125 17.5312 6.03125 17.5312 6.03125C17.5312 6.03125 17.5312 3.21875 17.1562 1.90625ZM7.25 8.5625V3.5L11.6875 6.03125L7.25 8.5625Z"></path>
    </symbol>
    <symbol xmlns="http://www.w3.org/2000/svg" viewBox="0 0 496 512" id="telegram">
        <path d="M248,8C111.033,8,0,119.033,0,256S111.033,504,248,504,496,392.967,496,256,384.967,8,248,8ZM362.952,176.66c-3.732,39.215-19.881,134.378-28.1,178.3-3.476,18.584-10.322,24.816-16.948,25.425-14.4,1.326-25.338-9.517-39.287-18.661-21.827-14.308-34.158-23.215-55.346-37.177-24.485-16.135-8.612-25,5.342-39.5,3.652-3.793,67.107-61.51,68.335-66.746.153-.655.3-3.1-1.154-4.384s-3.59-.849-5.135-.5q-3.283.746-104.608,69.142-14.845,10.194-26.894,9.934c-8.855-.191-25.888-5.006-38.551-9.123-15.531-5.048-27.875-7.717-26.8-16.291q.84-6.7,18.45-13.7,108.446-47.248,144.628-62.3c68.872-28.647,83.183-33.623,92.511-33.789,2.052-.034,6.639.474,9.61,2.885a10.452,10.452,0,0,1,3.53,6.716A43.765,43.765,0,0,1,362.952,176.66Z"></path>
    </symbol>
    <symbol xmlns="http://www.w3.org/2000/svg" viewBox="0 0 448 512" id="vk">
        <path d="M31.4907 63.4907C0 94.9813 0 145.671 0 247.04V264.96C0 366.329 0 417.019 31.4907 448.509C62.9813 480 113.671 480 215.04 480H232.96C334.329 480 385.019 480 416.509 448.509C448 417.019 448 366.329 448 264.96V247.04C448 145.671 448 94.9813 416.509 63.4907C385.019 32 334.329 32 232.96 32H215.04C113.671 32 62.9813 32 31.4907 63.4907ZM75.6 168.267H126.747C128.427 253.76 166.133 289.973 196 297.44V168.267H244.16V242C273.653 238.827 304.64 205.227 315.093 168.267H363.253C359.313 187.435 351.46 205.583 340.186 221.579C328.913 237.574 314.461 251.071 297.733 261.227C316.41 270.499 332.907 283.63 346.132 299.751C359.357 315.873 369.01 334.618 374.453 354.747H321.44C316.555 337.262 306.614 321.61 292.865 309.754C279.117 297.899 262.173 290.368 244.16 288.107V354.747H238.373C136.267 354.747 78.0267 284.747 75.6 168.267Z"></path>
    </symbol>
    <symbol xmlns="http://www.w3.org/2000/svg" viewBox="0 0 16 10" id="explore_arrow">
        <path d="M10.1953 1.47108C9.93491 1.21073 9.93491 0.788619 10.1953 0.52827C10.4556 0.26792 10.8777 0.26792 11.1381 0.52827L15.1381 4.52827C15.3984 4.78862 15.3984 5.21073 15.1381 5.47108L11.1381 9.47108C10.8777 9.73143 10.4556 9.73143 10.1953 9.47108C9.93491 9.21073 9.93491 8.78862 10.1953 8.52827L13.0572 5.66633H1.34052C0.968273 5.66633 0.666504 5.36785 0.666504 4.99966C0.666504 4.63147 0.968273 4.333 1.34052 4.333H13.0572L10.1953 1.47108Z"></path>
    </symbol>
    <symbol xmlns="http://www.w3.org/2000/svg" viewBox="0 0 12 12" id="stat1">
        <path fill-rule="evenodd" clip-rule="evenodd" d="M1.98347 7.67527H0.545455C0.244208 7.67527 0 7.44603 0 7.16324V1.112C0 0.829218 0.244208 0.599976 0.545455 0.599976H9.47107C9.77232 0.599976 10.0165 0.829218 10.0165 1.112V7.16324C10.0165 7.44603 9.77232 7.67527 9.47107 7.67527H6.1748L2.84596 9.9073C2.48495 10.1494 1.98347 9.90711 1.98347 9.49065V7.67527ZM10.9091 2.97392C10.9091 2.69114 11.1533 2.46189 11.4545 2.46189C11.7558 2.46189 12 2.69114 12 2.97392V9.02516C12 9.30795 11.7558 9.53719 11.4545 9.53719H10.0165V10.8871C10.0165 11.296 9.53098 11.54 9.1685 11.3131L6.3307 9.53719H5.99999C5.69874 9.53719 5.45453 9.30795 5.45453 9.02516C5.45453 8.74238 5.69874 8.51313 5.99999 8.51313H6.49585C6.60354 8.51313 6.70882 8.54306 6.79842 8.59913L8.92561 9.93035V9.02516C8.92561 8.74238 9.16981 8.51313 9.47106 8.51313H10.9091V2.97392ZM1.09089 1.62403H8.9256V6.65122H5.99998C5.88629 6.65122 5.77545 6.68456 5.68294 6.74659L3.07436 8.49568V7.16325C3.07436 6.88046 2.83015 6.65122 2.5289 6.65122H1.09089V1.62403Z"></path>
    </symbol>
    <symbol xmlns="http://www.w3.org/2000/svg" viewBox="0 0 12 12" id="stat2">
        <path fill-rule="evenodd" clip-rule="evenodd" d="M10.9698 6.67141C12.3447 5.21387 12.3447 2.85061 10.9698 1.39308C9.59831 -0.0608146 7.37671 -0.0644477 6.00098 1.38218C4.62525 -0.0644477 2.40365 -0.0608146 1.03216 1.39308C-0.342753 2.85061 -0.342753 5.21387 1.03216 6.67141L5.61472 11.5304C5.82774 11.7562 6.17316 11.7563 6.3862 11.5304L10.9698 6.67141ZM10.1983 5.85361L6.0005 10.3037L1.80362 5.85366C0.854715 4.84773 0.854715 3.21675 1.80358 2.21087C2.75244 1.20499 4.29098 1.20499 5.23984 2.21087C5.35391 2.3318 5.45642 2.46523 5.54644 2.60904C5.76222 2.95374 6.23969 2.95374 6.45547 2.60904C6.54566 2.46497 6.64769 2.33212 6.76207 2.21087C7.71093 1.20499 9.24947 1.20499 10.1983 2.21087C11.1472 3.21675 11.1472 4.84773 10.1983 5.85361Z"></path>
    </symbol>
    <symbol fill="none" xmlns="http://www.w3.org/2000/svg" viewBox="0 0 740 740" id="circle1">
        <circle cx="370" cy="370" r="370" fill="#0096FF"></circle>
    </symbol>
    <symbol xmlns="http://www.w3.org/2000/svg" viewBox="0 0 478 479" id="circle2">
        <circle cx="239" cy="239.873" r="239"></circle>
    </symbol>
    <symbol fill="none" xmlns="http://www.w3.org/2000/svg" viewBox="0 0 20 20" id="details2">
        <path fill-rule="evenodd" clip-rule="evenodd" d="M11.6667 1.66667C11.2064 1.66667 10.8333 1.29357 10.8333 0.833333C10.8333 0.373096 11.2064 0 11.6667 0C16.2694 0 20 3.7306 20 8.33333C20 8.79357 19.6269 9.16667 19.1667 9.16667C18.7064 9.16667 18.3333 8.79357 18.3333 8.33333C18.3333 4.65107 15.3489 1.66667 11.6667 1.66667ZM13.5774 11.9107L11.6667 13.8215L6.17851 8.33333L8.08926 6.42259C8.41469 6.09715 8.41469 5.56951 8.08926 5.24408L3.92259 1.07741C3.59715 0.751974 3.06951 0.751974 2.74408 1.07741L0.244078 3.57741C0.0877974 3.73369 0 3.94565 0 4.16667C0 12.9111 7.08893 20 15.8333 20C16.0543 20 16.2663 19.9122 16.4226 19.7559L18.9226 17.2559C19.248 16.9305 19.248 16.4028 18.9226 16.0774L14.7559 11.9107C14.4305 11.5853 13.9028 11.5853 13.5774 11.9107ZM11.0774 15.5893C11.4028 15.9147 11.9305 15.9147 12.2559 15.5893L14.1667 13.6785L17.1548 16.6667L15.4922 18.3293C7.93925 18.1508 1.8492 12.0608 1.67069 4.50782L3.33333 2.84518L6.32149 5.83333L4.41074 7.74408C4.08531 8.06951 4.08531 8.59715 4.41074 8.92259L11.0774 15.5893ZM10.8333 4.16667C10.8333 4.6269 11.2064 5 11.6667 5C13.5073 5 15 6.49274 15 8.33333C15 8.79357 15.3731 9.16667 15.8333 9.16667C16.2936 9.16667 16.6667 8.79357 16.6667 8.33333C16.6667 5.57226 14.4277 3.33333 11.6667 3.33333C11.2064 3.33333 10.8333 3.70643 10.8333 4.16667Z" fill="#0096FF"></path>
    </symbol>
    <symbol fill="none" xmlns="http://www.w3.org/2000/svg" viewBox="0 0 20 20" id="details1">
        <path fill-rule="evenodd" clip-rule="evenodd" d="M16.6942 6.69421C16.6942 7.80633 16.2598 9.06972 15.478 10.48C14.9801 11.3781 14.3495 12.3184 13.6165 13.2834C12.9671 14.1382 12.2733 14.9659 11.5795 15.7365C11.3366 16.0064 11.1107 16.2501 10.9075 16.4639C10.7842 16.5935 10.695 16.6853 10.6453 16.7353C10.2897 17.0937 9.71025 17.0937 9.35467 16.7353C9.30502 16.6853 9.21577 16.5935 9.09254 16.4639C8.88931 16.2501 8.66342 16.0064 8.42046 15.7365C7.72666 14.9659 7.03286 14.1382 6.38353 13.2834C5.65047 12.3184 5.01988 11.3781 4.52203 10.48C3.74019 9.06972 3.30579 7.80633 3.30579 6.69421C3.30579 2.79397 6.40543 0 10 0C13.5946 0 16.6942 2.79397 16.6942 6.69421ZM10.2283 14.52C10.8904 13.7846 11.5525 12.9947 12.1686 12.1836C12.8528 11.2829 13.4365 10.4126 13.8878 9.59848C14.5336 8.43364 14.876 7.4376 14.876 6.69421C14.876 3.84265 12.6301 1.81818 10 1.81818C7.36992 1.81818 5.12397 3.84265 5.12397 6.69421C5.12397 7.4376 5.46644 8.43364 6.1122 9.59848C6.56354 10.4126 7.14721 11.2829 7.83135 12.1836C8.44751 12.9947 9.1096 13.7846 9.77169 14.52C9.84978 14.6067 9.92596 14.6905 10 14.7713C10.074 14.6905 10.1502 14.6067 10.2283 14.52ZM7.43802 6.69421C7.43802 8.10916 8.58506 9.2562 10 9.2562C11.4149 9.2562 12.562 8.10916 12.562 6.69421C12.562 5.27927 11.4149 4.13223 10 4.13223C8.58506 4.13223 7.43802 5.27927 7.43802 6.69421ZM10 7.43802C10.4108 7.43802 10.7438 7.10501 10.7438 6.69421C10.7438 6.28342 10.4108 5.95041 10 5.95041C9.58921 5.95041 9.2562 6.28342 9.2562 6.69421C9.2562 7.10501 9.58921 7.43802 10 7.43802ZM14.0636 14.374C13.9758 14.8683 14.3053 15.3403 14.7996 15.4281C15.9681 15.6358 16.9222 15.9152 17.556 16.2274C17.903 16.3982 18.0821 16.5375 18.1495 16.59C18.1717 16.6073 18.1818 16.6151 18.1818 16.6116C18.1818 17.1653 14.4545 18.1818 10 18.1818C5.54553 18.1818 1.81818 17.1653 1.81818 16.6116C1.81818 16.6151 1.82829 16.6073 1.85051 16.59C1.91795 16.5375 2.09701 16.3982 2.44396 16.2274C3.07785 15.9152 4.03194 15.6358 5.20041 15.4281C5.69474 15.3403 6.02425 14.8683 5.93638 14.374C5.84852 13.8796 5.37656 13.5501 4.88223 13.638C1.8775 14.1721 0 15.0966 0 16.6116C0 18.7966 4.41277 20 10 20C15.5872 20 20 18.7966 20 16.6116C20 15.0966 18.1225 14.1721 15.1178 13.638C14.6234 13.5501 14.1515 13.8796 14.0636 14.374Z" fill="#0096FF"></path>
    </symbol>
    <symbol fill="none" xmlns="http://www.w3.org/2000/svg" viewBox="0 0 16 20" id="details3">
        <path fill-rule="evenodd" clip-rule="evenodd" d="M5.62376 1.81818C5.14256 1.81818 4.75248 1.41117 4.75248 0.909091C4.75248 0.407014 5.14256 0 5.62376 0H8C7.5188 0 7.12871 0.407014 7.12871 0.909091V1.73554C7.12871 1.7634 7.12991 1.79096 7.13226 1.81818H5.62376ZM8.86773 1.81818C8.82772 2.28153 8.4545 2.64463 8 2.64463C7.5455 2.64463 7.17228 2.28153 7.13226 1.81818H8.86773ZM8.86773 1.81818C8.87009 1.79096 8.87129 1.7634 8.87129 1.73554V0.909091C8.87129 0.407014 8.4812 0 8 0H10.3762C10.8574 0 11.2475 0.407014 11.2475 0.909091C11.2475 1.41117 10.8574 1.81818 10.3762 1.81818H8.86773ZM8 20C3.58172 20 0 16.2629 0 11.6529C0 7.04291 3.58172 3.30579 8 3.30579C12.4183 3.30579 16 7.04291 16 11.6529C16 16.2629 12.4183 20 8 20ZM11.1683 10.7438C11.6495 10.7438 12.0396 11.1508 12.0396 11.6529C12.0396 12.155 11.6495 12.562 11.1683 12.562H8C7.5188 12.562 7.12871 12.155 7.12871 11.6529V8.34711C7.12871 7.84503 7.5188 7.43802 8 7.43802C8.4812 7.43802 8.87129 7.84503 8.87129 8.34711V10.7438H11.1683ZM14.2574 11.6529C14.2574 15.2587 11.4559 18.1818 8 18.1818C4.54412 18.1818 1.74257 15.2587 1.74257 11.6529C1.74257 8.04707 4.54412 5.12397 8 5.12397C11.4559 5.12397 14.2574 8.04707 14.2574 11.6529Z" fill="#0096FF"></path>
    </symbol>
</svg>