<svg width="12" height="12" viewBox="0 0 12 12" fill="none" xmlns="http://www.w3.org/2000/svg">
<path fill-rule="evenodd" clip-rule="evenodd" d="M10.9698 6.67141C12.3447 5.21387 12.3447 2.85061 10.9698 1.39308C9.59831 -0.0608146 7.37671 -0.0644477 6.00098 1.38218C4.62525 -0.0644477 2.40365 -0.0608146 1.03216 1.39308C-0.342753 2.85061 -0.342753 5.21387 1.03216 6.67141L5.61472 11.5304C5.82774 11.7562 6.17316 11.7563 6.3862 11.5304L10.9698 6.67141ZM10.1983 5.85361L6.0005 10.3037L1.80362 5.85366C0.854715 4.84773 0.854715 3.21675 1.80358 2.21087C2.75244 1.20499 4.29098 1.20499 5.23984 2.21087C5.35391 2.3318 5.45642 2.46523 5.54644 2.60904C5.76222 2.95374 6.23969 2.95374 6.45547 2.60904C6.54566 2.46497 6.64769 2.33212 6.76207 2.21087C7.71093 1.20499 9.24947 1.20499 10.1983 2.21087C11.1472 3.21675 11.1472 4.84773 10.1983 5.85361Z" fill="#2296F9"/>
</svg>
