<svg width="12" height="12" viewBox="0 0 12 12" fill="none" xmlns="http://www.w3.org/2000/svg">
<path fill-rule="evenodd" clip-rule="evenodd" d="M1.98347 7.67527H0.545455C0.244208 7.67527 0 7.44603 0 7.16324V1.112C0 0.829218 0.244208 0.599976 0.545455 0.599976H9.47107C9.77232 0.599976 10.0165 0.829218 10.0165 1.112V7.16324C10.0165 7.44603 9.77232 7.67527 9.47107 7.67527H6.1748L2.84596 9.9073C2.48495 10.1494 1.98347 9.90711 1.98347 9.49065V7.67527ZM10.9091 2.97392C10.9091 2.69114 11.1533 2.46189 11.4545 2.46189C11.7558 2.46189 12 2.69114 12 2.97392V9.02516C12 9.30795 11.7558 9.53719 11.4545 9.53719H10.0165V10.8871C10.0165 11.296 9.53098 11.54 9.1685 11.3131L6.3307 9.53719H5.99999C5.69874 9.53719 5.45453 9.30795 5.45453 9.02516C5.45453 8.74238 5.69874 8.51313 5.99999 8.51313H6.49585C6.60354 8.51313 6.70882 8.54306 6.79842 8.59913L8.92561 9.93035V9.02516C8.92561 8.74238 9.16981 8.51313 9.47106 8.51313H10.9091V2.97392ZM1.09089 1.62403H8.9256V6.65122H5.99998C5.88629 6.65122 5.77545 6.68456 5.68294 6.74659L3.07436 8.49568V7.16325C3.07436 6.88046 2.83015 6.65122 2.5289 6.65122H1.09089V1.62403Z" fill="#2296F9"/>
</svg>
